<?xml version="1.0" standalone="no"?>
<!DOCTYPE svg PUBLIC "-//W3C//DTD SVG 20010904//EN"
 "http://www.w3.org/TR/2001/REC-SVG-20010904/DTD/svg10.dtd">
<svg version="1.0" xmlns="http://www.w3.org/2000/svg"
 width="2000.000000pt" height="2000.000000pt" viewBox="0 0 2000.000000 2000.000000"
 preserveAspectRatio="xMidYMid meet">
<metadata>
Created by potrace 1.14, written by Peter Selinger 2001-2017
</metadata>
<g transform="translate(0.000000,2000.000000) scale(0.100000,-0.100000)"
fill="#000000" stroke="none">
<path d="M9709 17026 c-2 -2 -62 -6 -134 -10 -71 -4 -148 -9 -170 -11 -22 -2
-69 -7 -105 -10 -36 -4 -78 -8 -95 -10 -16 -2 -52 -7 -80 -10 -27 -3 -63 -8
-80 -11 -16 -2 -46 -6 -65 -8 -19 -3 -78 -12 -130 -21 -52 -9 -108 -18 -125
-21 -16 -3 -37 -7 -45 -9 -8 -2 -31 -7 -50 -10 -216 -37 -595 -138 -900 -241
-343 -117 -798 -316 -1085 -477 -250 -140 -618 -367 -645 -398 -3 -3 -32 -24
-65 -46 -73 -50 -312 -231 -385 -293 -29 -25 -74 -62 -99 -84 -249 -208 -581
-538 -781 -776 -30 -36 -58 -67 -61 -70 -9 -8 -242 -305 -259 -330 -8 -13 -24
-35 -36 -49 -50 -62 -204 -292 -299 -446 -181 -293 -317 -553 -475 -910 -36
-83 -122 -299 -151 -383 -44 -125 -110 -324 -114 -342 -2 -8 -18 -62 -35 -120
-17 -58 -42 -150 -56 -205 -31 -124 -26 -101 -63 -280 -32 -150 -37 -174 -45
-230 -3 -16 -13 -75 -21 -130 -9 -55 -18 -116 -21 -135 -2 -19 -7 -57 -10 -85
-11 -78 -24 -201 -29 -275 -17 -217 -20 -309 -20 -585 0 -279 9 -547 19 -602
2 -10 7 -61 11 -113 4 -52 9 -97 10 -100 2 -3 6 -35 10 -70 3 -36 8 -76 10
-90 11 -66 25 -159 30 -200 3 -25 8 -52 10 -60 2 -8 7 -31 10 -50 24 -138 90
-426 149 -640 34 -126 129 -420 147 -455 6 -12 11 -27 13 -35 2 -8 7 -24 11
-35 4 -11 28 -72 52 -135 140 -364 392 -861 601 -1185 159 -246 443 -640 502
-695 3 -3 24 -27 45 -55 22 -27 45 -54 51 -60 5 -5 39 -44 75 -85 281 -325
679 -693 1053 -972 72 -54 136 -102 143 -108 18 -15 381 -254 423 -278 19 -11
103 -59 185 -107 170 -99 534 -279 705 -350 63 -26 127 -53 142 -61 14 -8 31
-14 37 -14 6 0 30 -9 54 -19 129 -59 550 -194 812 -260 161 -40 503 -110 625
-126 14 -2 54 -8 90 -14 36 -5 92 -13 125 -16 33 -3 71 -8 85 -10 25 -4 139
-16 195 -20 221 -16 328 -20 605 -20 283 0 460 6 590 20 45 4 153 15 210 20
59 6 119 14 150 19 14 3 45 7 70 10 43 5 57 8 140 22 19 3 49 8 65 10 17 3 41
7 55 10 14 3 36 8 50 10 89 16 247 51 380 86 85 22 162 41 170 43 129 29 620
197 747 256 24 10 47 19 53 19 6 0 18 4 28 9 27 15 173 81 179 81 3 0 96 44
207 99 300 147 650 352 889 521 44 30 89 62 101 70 31 21 210 153 216 160 3 3
25 21 50 40 25 19 50 39 56 45 6 5 28 24 49 40 21 17 43 35 49 40 6 6 38 33
71 60 250 210 572 535 806 816 461 551 824 1143 1098 1792 67 158 181 462 214
572 76 250 123 418 143 513 2 12 13 59 24 105 10 45 22 96 25 112 11 57 34
180 39 215 4 19 9 48 12 63 6 29 8 39 18 117 3 25 8 54 10 65 2 11 7 47 10 80
4 33 9 74 11 90 2 17 6 64 10 105 4 41 9 89 11 105 26 201 25 935 -1 1190 -2
22 -7 69 -10 105 -4 36 -8 79 -10 95 -3 17 -7 53 -10 80 -3 28 -7 64 -10 80
-3 17 -7 48 -10 70 -3 22 -15 94 -26 160 -11 66 -22 129 -24 140 -6 41 -36
178 -39 184 -2 3 -7 22 -10 41 -9 57 -54 234 -97 384 -234 820 -629 1609
-1151 2301 -75 99 -147 192 -159 206 -13 14 -46 52 -72 85 -252 308 -669 712
-1027 993 -159 125 -171 135 -196 151 -12 8 -64 45 -116 81 -105 75 -259 179
-263 179 -2 0 -53 32 -114 70 -62 39 -113 70 -115 70 -1 0 -59 32 -127 71
-115 66 -387 204 -504 256 -28 12 -81 36 -120 54 -366 162 -878 327 -1300 419
-55 11 -108 23 -118 25 -28 6 -246 44 -292 50 -22 3 -51 8 -65 10 -43 8 -82
13 -175 24 -90 11 -137 15 -270 26 -38 4 -88 8 -110 11 -49 5 -760 15 -766 10z"/>
</g>
</svg>
